<svg id="visual" viewBox="0 0 960 540" width="960" height="540" xmlns="http://www.w3.org/2000/svg" xmlns:xlink="http://www.w3.org/1999/xlink" version="1.1"><rect x="0" y="0" width="960" height="540" fill="#42525f"></rect><defs><linearGradient id="grad1_0" x1="43.8%" y1="100%" x2="100%" y2="0%"><stop offset="14.444444444444446%" stop-color="#3ce9fa" stop-opacity="1"></stop><stop offset="85.55555555555554%" stop-color="#3ce9fa" stop-opacity="1"></stop></linearGradient></defs><defs><linearGradient id="grad1_1" x1="43.8%" y1="100%" x2="100%" y2="0%"><stop offset="14.444444444444446%" stop-color="#3ce9fa" stop-opacity="1"></stop><stop offset="85.55555555555554%" stop-color="#43cee4" stop-opacity="1"></stop></linearGradient></defs><defs><linearGradient id="grad1_2" x1="43.8%" y1="100%" x2="100%" y2="0%"><stop offset="14.444444444444446%" stop-color="#49b3cc" stop-opacity="1"></stop><stop offset="85.55555555555554%" stop-color="#43cee4" stop-opacity="1"></stop></linearGradient></defs><defs><linearGradient id="grad1_3" x1="43.8%" y1="100%" x2="100%" y2="0%"><stop offset="14.444444444444446%" stop-color="#49b3cc" stop-opacity="1"></stop><stop offset="85.55555555555554%" stop-color="#4c99b3" stop-opacity="1"></stop></linearGradient></defs><defs><linearGradient id="grad1_4" x1="43.8%" y1="100%" x2="100%" y2="0%"><stop offset="14.444444444444446%" stop-color="#4d8097" stop-opacity="1"></stop><stop offset="85.55555555555554%" stop-color="#4c99b3" stop-opacity="1"></stop></linearGradient></defs><defs><linearGradient id="grad1_5" x1="43.8%" y1="100%" x2="100%" y2="0%"><stop offset="14.444444444444446%" stop-color="#4d8097" stop-opacity="1"></stop><stop offset="85.55555555555554%" stop-color="#49687b" stop-opacity="1"></stop></linearGradient></defs><defs><linearGradient id="grad1_6" x1="43.8%" y1="100%" x2="100%" y2="0%"><stop offset="14.444444444444446%" stop-color="#42525f" stop-opacity="1"></stop><stop offset="85.55555555555554%" stop-color="#49687b" stop-opacity="1"></stop></linearGradient></defs><defs><linearGradient id="grad2_0" x1="0%" y1="100%" x2="56.3%" y2="0%"><stop offset="14.444444444444446%" stop-color="#3ce9fa" stop-opacity="1"></stop><stop offset="85.55555555555554%" stop-color="#3ce9fa" stop-opacity="1"></stop></linearGradient></defs><defs><linearGradient id="grad2_1" x1="0%" y1="100%" x2="56.3%" y2="0%"><stop offset="14.444444444444446%" stop-color="#43cee4" stop-opacity="1"></stop><stop offset="85.55555555555554%" stop-color="#3ce9fa" stop-opacity="1"></stop></linearGradient></defs><defs><linearGradient id="grad2_2" x1="0%" y1="100%" x2="56.3%" y2="0%"><stop offset="14.444444444444446%" stop-color="#43cee4" stop-opacity="1"></stop><stop offset="85.55555555555554%" stop-color="#49b3cc" stop-opacity="1"></stop></linearGradient></defs><defs><linearGradient id="grad2_3" x1="0%" y1="100%" x2="56.3%" y2="0%"><stop offset="14.444444444444446%" stop-color="#4c99b3" stop-opacity="1"></stop><stop offset="85.55555555555554%" stop-color="#49b3cc" stop-opacity="1"></stop></linearGradient></defs><defs><linearGradient id="grad2_4" x1="0%" y1="100%" x2="56.3%" y2="0%"><stop offset="14.444444444444446%" stop-color="#4c99b3" stop-opacity="1"></stop><stop offset="85.55555555555554%" stop-color="#4d8097" stop-opacity="1"></stop></linearGradient></defs><defs><linearGradient id="grad2_5" x1="0%" y1="100%" x2="56.3%" y2="0%"><stop offset="14.444444444444446%" stop-color="#49687b" stop-opacity="1"></stop><stop offset="85.55555555555554%" stop-color="#4d8097" stop-opacity="1"></stop></linearGradient></defs><defs><linearGradient id="grad2_6" x1="0%" y1="100%" x2="56.3%" y2="0%"><stop offset="14.444444444444446%" stop-color="#49687b" stop-opacity="1"></stop><stop offset="85.55555555555554%" stop-color="#42525f" stop-opacity="1"></stop></linearGradient></defs><g transform="translate(960, 540)"><path d="M-378 0C-364.5 -30.4 -351 -60.7 -342.9 -91.9C-334.8 -123 -331.9 -155 -321.3 -185.5C-310.6 -216 -292.2 -245.2 -267.3 -267.3C-242.4 -289.4 -211.1 -304.4 -180 -311.8C-148.9 -319.1 -118 -318.7 -88 -328.4C-58 -338.2 -29 -358.1 0 -378L0 0Z" fill="#465d6d"></path><path d="M-324 0C-312.4 -26 -300.9 -52.1 -293.9 -78.8C-286.9 -105.5 -284.5 -132.8 -275.4 -159C-266.3 -185.2 -250.4 -210.2 -229.1 -229.1C-207.8 -248 -181 -261 -154.3 -267.2C-127.6 -273.5 -101.1 -273.1 -75.4 -281.5C-49.7 -289.9 -24.9 -306.9 0 -324L0 0Z" fill="#4b7489"></path><path d="M-270 0C-260.4 -21.7 -250.7 -43.4 -244.9 -65.6C-239.1 -87.9 -237.1 -110.7 -229.5 -132.5C-221.9 -154.3 -208.7 -175.1 -190.9 -190.9C-173.1 -206.7 -150.8 -217.5 -128.6 -222.7C-106.4 -227.9 -84.3 -227.6 -62.9 -234.6C-41.4 -241.5 -20.7 -255.8 0 -270L0 0Z" fill="#4d8da5"></path><path d="M-216 0C-208.3 -17.4 -200.6 -34.7 -195.9 -52.5C-191.3 -70.3 -189.7 -88.5 -183.6 -106C-177.5 -123.5 -167 -140.1 -152.7 -152.7C-138.5 -165.4 -120.6 -174 -102.9 -178.2C-85.1 -182.3 -67.4 -182.1 -50.3 -187.7C-33.2 -193.2 -16.6 -204.6 0 -216L0 0Z" fill="#4ba6c0"></path><path d="M-162 0C-156.2 -13 -150.4 -26 -147 -39.4C-143.5 -52.7 -142.3 -66.4 -137.7 -79.5C-133.1 -92.6 -125.2 -105.1 -114.6 -114.6C-103.9 -124 -90.5 -130.5 -77.1 -133.6C-63.8 -136.8 -50.6 -136.6 -37.7 -140.7C-24.9 -144.9 -12.4 -153.5 0 -162L0 0Z" fill="#46c0d9"></path><path d="M-108 0C-104.1 -8.7 -100.3 -17.4 -98 -26.3C-95.6 -35.2 -94.8 -44.3 -91.8 -53C-88.8 -61.7 -83.5 -70.1 -76.4 -76.4C-69.3 -82.7 -60.3 -87 -51.4 -89.1C-42.5 -91.2 -33.7 -91 -25.1 -93.8C-16.6 -96.6 -8.3 -102.3 0 -108L0 0Z" fill="#3fdbef"></path><path d="M-54 0C-52.1 -4.3 -50.1 -8.7 -49 -13.1C-47.8 -17.6 -47.4 -22.1 -45.9 -26.5C-44.4 -30.9 -41.7 -35 -38.2 -38.2C-34.6 -41.3 -30.2 -43.5 -25.7 -44.5C-21.3 -45.6 -16.9 -45.5 -12.6 -46.9C-8.3 -48.3 -4.1 -51.2 0 -54L0 0Z" fill="#3ce9fa"></path></g><g transform="translate(0, 0)"><path d="M378 0C359.3 28.8 340.5 57.6 332.3 89C324 120.5 326.2 154.6 314.4 181.5C302.5 208.4 276.6 228.2 255.3 255.3C233.9 282.3 217.1 316.7 189 327.4C160.9 338 121.6 324.9 88.3 329.4C54.9 333.9 27.4 355.9 0 378L0 0Z" fill="#465d6d"></path><path d="M324 0C307.9 24.7 291.9 49.4 284.8 76.3C277.7 103.3 279.6 132.5 269.5 155.6C259.3 178.7 237.1 195.6 218.8 218.8C200.5 242 186.1 271.5 162 280.6C137.9 289.7 104.3 278.5 75.6 282.3C47 286.2 23.5 305.1 0 324L0 0Z" fill="#4b7489"></path><path d="M270 0C256.6 20.6 243.2 41.1 237.3 63.6C231.4 86.1 233 110.4 224.5 129.6C216.1 148.9 197.6 163 182.3 182.3C167.1 201.7 155 226.2 135 233.8C115 241.4 86.9 232.1 63 235.3C39.2 238.5 19.6 254.2 0 270L0 0Z" fill="#4d8da5"></path><path d="M216 0C205.3 16.5 194.6 32.9 189.9 50.9C185.2 68.8 186.4 88.3 179.6 103.7C172.9 119.1 158.1 130.4 145.9 145.9C133.7 161.3 124 181 108 187.1C92 193.1 69.5 185.7 50.4 188.2C31.4 190.8 15.7 203.4 0 216L0 0Z" fill="#4ba6c0"></path><path d="M162 0C154 12.3 145.9 24.7 142.4 38.2C138.9 51.6 139.8 66.2 134.7 77.8C129.7 89.3 118.6 97.8 109.4 109.4C100.2 121 93 135.7 81 140.3C69 144.9 52.1 139.2 37.8 141.2C23.5 143.1 11.8 152.5 0 162L0 0Z" fill="#46c0d9"></path><path d="M108 0C102.6 8.2 97.3 16.5 94.9 25.4C92.6 34.4 93.2 44.2 89.8 51.9C86.4 59.6 79 65.2 72.9 72.9C66.8 80.7 62 90.5 54 93.5C46 96.6 34.8 92.8 25.2 94.1C15.7 95.4 7.8 101.7 0 108L0 0Z" fill="#3fdbef"></path><path d="M54 0C51.3 4.1 48.6 8.2 47.5 12.7C46.3 17.2 46.6 22.1 44.9 25.9C43.2 29.8 39.5 32.6 36.5 36.5C33.4 40.3 31 45.2 27 46.8C23 48.3 17.4 46.4 12.6 47.1C7.8 47.7 3.9 50.8 0 54L0 0Z" fill="#3ce9fa"></path></g></svg>